<svg xmlns="http://www.w3.org/2000/svg" preserveAspectRatio="none" viewBox="0 0 1440 560"><defs/><g fill="none" mask="url(&quot;#SvgjsMask1000&quot;)"><path fill="#0e2a47" d="M0 0h1440v560H0z"/><path fill="rgba(28, 83, 142, 0.4)" d="M1213.444 282.578l124.771-108.254-135.69-49.387zM420.645 396.073l-26.793-50.391-62.19 65.386z" class="triangle-float3"/><path fill="rgba(28, 83, 142, 0.4)" d="M717.404 409.661c17.591.464 33.756-8.67 43.318-23.442 10.549-16.298 15.678-36.678 6.756-53.92-9.567-18.487-29.316-31.342-50.074-29.79-18.905 1.413-30.322 19.36-38.594 36.418-7.033 14.504-8.66 30.957-.94 45.107 8.062 14.776 22.708 25.183 39.534 25.627M327.406 236.4l-90.488 78.66 78.66 90.489 90.488-78.66z" class="triangle-float2"/><path fill="rgba(28, 83, 142, 0.4)" d="M766.463 444.7l101.207-55.974-85.738-53.575z" class="triangle-float3"/><path fill="rgba(28, 83, 142, 0.4)" d="M1427.666 510.019l-86.522-42.302 4.406 84.074z" style="animation:float1 5s infinite"/></g><defs><mask id="SvgjsMask1000"><path fill="#fff" d="M0 0h1440v560H0z"/></mask></defs></svg>